<svg xmlns="http://www.w3.org/2000/svg" width="24" height="24" viewBox="0 0 24 24">
  <metadata><?xpacket begin="﻿" id="W5M0MpCehiHzreSzNTczkc9d"?>
<x:xmpmeta xmlns:x="adobe:ns:meta/" x:xmptk="Adobe XMP Core 5.6-c140 79.160451, 2017/05/06-01:08:21        ">
   <rdf:RDF xmlns:rdf="http://www.w3.org/1999/02/22-rdf-syntax-ns#">
      <rdf:Description rdf:about=""/>
   </rdf:RDF>
</x:xmpmeta>
                                                                                                    
                                                                                                    
                                                                                                    
                                                                                                    
                                                                                                    
                                                                                                    
                                                                                                    
                                                                                                    
                                                                                                    
                                                                                                    
                                                                                                    
                                                                                                    
                                                                                                    
                                                                                                    
                                                                                                    
                                                                                                    
                                                                                                    
                                                                                                    
                                                                                                    
                                                                                                    
                           
<?xpacket end="w"?></metadata>
<defs>
    <style>
      .cls-1 {
        fill: #14a17b;
        fill-rule: evenodd;
      }
    </style>
  </defs>
  <path id="иконка" class="cls-1" d="M339.219,898.75a2.569,2.569,0,0,1,.781,1.937v18.625A2.667,2.667,0,0,1,337.312,922H318.687A2.667,2.667,0,0,1,316,919.312V900.687A2.57,2.57,0,0,1,318.687,898h18.625A2.653,2.653,0,0,1,339.219,898.75ZM328,910.687l2.687,2.625L336,908v10H320Zm-3.438-5.906a2.651,2.651,0,0,1,.75,1.906,2.563,2.563,0,0,1-2.625,2.625,2.649,2.649,0,0,1-1.906-.75,2.491,2.491,0,0,1-.781-1.875A2.667,2.667,0,0,1,322.687,904,2.5,2.5,0,0,1,324.562,904.781Z" transform="translate(-316 -898)"/>
</svg>
