<svg xmlns="http://www.w3.org/2000/svg" width="24" height="24" viewBox="0 0 24 24">
  <metadata><?xpacket begin="﻿" id="W5M0MpCehiHzreSzNTczkc9d"?>
<x:xmpmeta xmlns:x="adobe:ns:meta/" x:xmptk="Adobe XMP Core 5.6-c140 79.160451, 2017/05/06-01:08:21        ">
   <rdf:RDF xmlns:rdf="http://www.w3.org/1999/02/22-rdf-syntax-ns#">
      <rdf:Description rdf:about=""/>
   </rdf:RDF>
</x:xmpmeta>
                                                                                                    
                                                                                                    
                                                                                                    
                                                                                                    
                                                                                                    
                                                                                                    
                                                                                                    
                                                                                                    
                                                                                                    
                                                                                                    
                                                                                                    
                                                                                                    
                                                                                                    
                                                                                                    
                                                                                                    
                                                                                                    
                                                                                                    
                                                                                                    
                                                                                                    
                                                                                                    
                           
<?xpacket end="w"?></metadata>
<defs>
    <style>
      .cls-1 {
        fill: #f66f15;
        fill-rule: evenodd;
      }
    </style>
  </defs>
  <path id="иконка" class="cls-1" d="M325.062,801.687h-2.375V788.312h5.688a6.706,6.706,0,0,1,2.312.313,4.617,4.617,0,0,1,1.438.875,4.041,4.041,0,0,1,1.187,3.125,3.716,3.716,0,0,1-1.187,3.125,4.178,4.178,0,0,1-1.438.844,7.407,7.407,0,0,1-2.312.281h-3.313v4.812ZM318.687,783a2.649,2.649,0,0,0-1.906.75,2.565,2.565,0,0,0-.781,1.937v18.625A2.667,2.667,0,0,0,318.687,807h18.625A2.667,2.667,0,0,0,340,804.312V785.687A2.667,2.667,0,0,0,337.312,783H318.687Zm9.625,12a2.546,2.546,0,0,0,1.875-.625,2.241,2.241,0,0,0,.625-1.656,2.438,2.438,0,0,0-.687-1.75,2.841,2.841,0,0,0-2-.782h-3.063V795h3.25Z" transform="translate(-316 -783)"/>
</svg>
