<svg xmlns="http://www.w3.org/2000/svg" width="12" height="10.5" viewBox="0 0 12 10.5">
  <metadata><?xpacket begin="﻿" id="W5M0MpCehiHzreSzNTczkc9d"?>
<x:xmpmeta xmlns:x="adobe:ns:meta/" x:xmptk="Adobe XMP Core 5.6-c138 79.159824, 2016/09/14-01:09:01        ">
   <rdf:RDF xmlns:rdf="http://www.w3.org/1999/02/22-rdf-syntax-ns#">
      <rdf:Description rdf:about=""/>
   </rdf:RDF>
</x:xmpmeta>
                                                                                                    
                                                                                                    
                                                                                                    
                                                                                                    
                                                                                                    
                                                                                                    
                                                                                                    
                                                                                                    
                                                                                                    
                                                                                                    
                                                                                                    
                                                                                                    
                                                                                                    
                                                                                                    
                                                                                                    
                                                                                                    
                                                                                                    
                                                                                                    
                                                                                                    
                                                                                                    
                           
<?xpacket end="w"?></metadata>
<defs>
    <style>
      .cls-1 {
        fill: #b2b2b2;
        fill-rule: evenodd;
      }
    </style>
  </defs>
  <path id="иконка" class="cls-1" d="M345.143,1121.68a3.713,3.713,0,0,1,0-5.36,6.245,6.245,0,0,1,2.15-1.88,5.655,5.655,0,0,1,5.414,0,6.245,6.245,0,0,1,2.15,1.88,3.713,3.713,0,0,1,0,5.36,6.245,6.245,0,0,1-2.15,1.88,5.655,5.655,0,0,1-5.414,0A6.245,6.245,0,0,1,345.143,1121.68ZM344.75,1119a4.419,4.419,0,0,0,1.857,2.68,5.915,5.915,0,0,0,6.786,0,4.419,4.419,0,0,0,1.857-2.68,4.476,4.476,0,0,0-1.857-2.68,5.915,5.915,0,0,0-6.786,0,4.476,4.476,0,0,0-1.857,2.68h0Zm2.25,0a2.974,2.974,0,0,1,4.336-2.67l-0.328.67a2.244,2.244,0,0,0-3.258,2.01,2.127,2.127,0,0,0,.662,1.58,2.247,2.247,0,0,0,3.838-1.59,2.216,2.216,0,0,0-.246-1l0.68-.34A3,3,0,0,1,353,1119,3,3,0,0,1,347,1119Zm3,0,1.336-.67a1.485,1.485,0,0,1,.164.67,1.5,1.5,0,1,1-1.5-1.5,1.465,1.465,0,0,1,.668.16Z" transform="translate(-344 -1113.75)"/>
</svg>
