<svg xmlns="http://www.w3.org/2000/svg" width="12" height="12" viewBox="0 0 12 12">
  <metadata><?xpacket begin="﻿" id="W5M0MpCehiHzreSzNTczkc9d"?>
<x:xmpmeta xmlns:x="adobe:ns:meta/" x:xmptk="Adobe XMP Core 5.6-c138 79.159824, 2016/09/14-01:09:01        ">
   <rdf:RDF xmlns:rdf="http://www.w3.org/1999/02/22-rdf-syntax-ns#">
      <rdf:Description rdf:about=""/>
   </rdf:RDF>
</x:xmpmeta>
                                                                                                    
                                                                                                    
                                                                                                    
                                                                                                    
                                                                                                    
                                                                                                    
                                                                                                    
                                                                                                    
                                                                                                    
                                                                                                    
                                                                                                    
                                                                                                    
                                                                                                    
                                                                                                    
                                                                                                    
                                                                                                    
                                                                                                    
                                                                                                    
                                                                                                    
                                                                                                    
                           
<?xpacket end="w"?></metadata>
<defs>
    <style>
      .cls-1 {
        fill: #b2b2b2;
        fill-rule: evenodd;
      }
    </style>
  </defs>
  <path id="иконка" class="cls-1" d="M398,1116.37a3.38,3.38,0,0,1,3.375-3.37,3.349,3.349,0,0,1,1.471.33,3.409,3.409,0,0,1,1.154.92,3.552,3.552,0,0,1,1.16-.92,3.311,3.311,0,0,1,1.465-.33,3.38,3.38,0,0,1,3.375,3.37,5.542,5.542,0,0,1-.393,1.79,10.5,10.5,0,0,1-1.119,2.21c-0.265.42-.478,0.75-0.638,1s-0.37.55-.627,0.92-0.477.66-.657,0.88-0.39.46-.633,0.72a4.7,4.7,0,0,1-.656.61,3.01,3.01,0,0,1-.627.35,1.578,1.578,0,0,1-.65.15,1.734,1.734,0,0,1-.65-0.14,3.01,3.01,0,0,1-.627-0.35,4.392,4.392,0,0,1-.651-0.6c-0.238-.26-0.447-0.5-0.627-0.71s-0.4-.52-0.656-0.89-0.467-.68-0.627-0.93-0.377-.58-0.65-1.01a10.533,10.533,0,0,1-1.1-2.18,5.712,5.712,0,0,1-.41-1.82h0Z" transform="translate(-398 -1113)"/>
</svg>
