<svg xmlns="http://www.w3.org/2000/svg" width="70" height="80" viewBox="0 0 70 80">
  <metadata><?xpacket begin="﻿" id="W5M0MpCehiHzreSzNTczkc9d"?>
<x:xmpmeta xmlns:x="adobe:ns:meta/" x:xmptk="Adobe XMP Core 5.6-c138 79.159824, 2016/09/14-01:09:01        ">
   <rdf:RDF xmlns:rdf="http://www.w3.org/1999/02/22-rdf-syntax-ns#">
      <rdf:Description rdf:about=""/>
   </rdf:RDF>
</x:xmpmeta>
                                                                                                    
                                                                                                    
                                                                                                    
                                                                                                    
                                                                                                    
                                                                                                    
                                                                                                    
                                                                                                    
                                                                                                    
                                                                                                    
                                                                                                    
                                                                                                    
                                                                                                    
                                                                                                    
                                                                                                    
                                                                                                    
                                                                                                    
                                                                                                    
                                                                                                    
                                                                                                    
                           
<?xpacket end="w"?></metadata>
<defs>
    <style>
      .cls-1 {
        fill: #fff;
        fill-rule: evenodd;
      }
    </style>
  </defs>
  <path id="логотип" class="cls-1" d="M65.383,106.736V99.989h-6.23v6.747H57.1V92.4h2.054v5.844h6.23V92.4H67.44v14.336H65.383m15.443,0h2.087V92.4H80.462l-5.8,11.357H74.6V92.4H72.544v14.336h2.448l5.8-11.324h0.032v11.324M92.777,94.145h3.931V92.4H86.789v1.744h3.929v12.592h2.058V94.145M45.937,92.43h3.244l4.675,14.307H51.643l-1.116-3.679H44.533l-1.158,3.679h-2L45.937,92.43h0Zm-0.91,8.914h4.961L47.5,93.105H47.456l-2.429,8.238M29.513,92.4v3.193a41.059,41.059,0,0,1-.3,6.411c-0.245,1.572-.724,2.475-1.36,2.8a3.2,3.2,0,0,1-.641.233L27.02,107a5.642,5.642,0,0,0,2.165-.562c1.722-1.053,2-3.343,2.147-5.242a50.5,50.5,0,0,0,.244-5.485V94.236h4.562v12.5h2.148V92.4H29.513ZM92.806,59.737A16.425,16.425,0,0,0,79.522,66.49,48.582,48.582,0,0,0,78.3,61.635a20.514,20.514,0,0,1,14.511-5.99l4.134-.029,0.008-4.06-4.142,0a24.6,24.6,0,0,0-16.019,5.91c-0.539-1.309-1.137-2.586-1.784-3.834a28.687,28.687,0,0,1,17.8-6.168l4.1,0,0.042-4.087-4.142-.008a32.79,32.79,0,0,0-19.859,6.666c-0.731-1.16-1.5-2.293-2.324-3.384a36.894,36.894,0,0,1,22.183-7.374l4.142,0.007V35.192l-4.142-.008a40.988,40.988,0,0,0-24.789,8.3q-1.373-1.537-2.874-2.954a45.084,45.084,0,0,1,27.663-9.442L96.948,31.1V27.008L92.806,27A49.186,49.186,0,0,0,62,37.792,49.185,49.185,0,0,0,31.192,27l-4.142.008V31.1l4.142-.008a45.079,45.079,0,0,1,27.662,9.442q-1.5,1.418-2.873,2.953a40.989,40.989,0,0,0-24.789-8.3l-4.142.008v4.091l4.142-.007a36.894,36.894,0,0,1,22.183,7.374c-0.823,1.091-1.593,2.224-2.324,3.384a32.791,32.791,0,0,0-19.86-6.666l-4.142.008,0.042,4.087,4.1,0A28.686,28.686,0,0,1,49,53.629c-0.646,1.249-1.244,2.526-1.784,3.834a24.6,24.6,0,0,0-16.02-5.91l-4.142,0,0.008,4.06,4.134,0.029A20.512,20.512,0,0,1,45.7,61.636a48.619,48.619,0,0,0-1.227,4.854,16.426,16.426,0,0,0-13.284-6.753L27,59.752v4.083l4.192-.006A12.3,12.3,0,0,1,43.5,76.1l0.013,8.161,4.111,0.03,0-2.193,0.007-6a44.942,44.942,0,0,1,1.228-10.412A20.3,20.3,0,0,1,51.72,76.1l-0.04,8.161h4.171l-0.015-5.287L55.848,76.1a36.672,36.672,0,0,1,1.771-11.274A28.452,28.452,0,0,1,59.935,76.1l0,8.161h4.134l0-8.161A28.459,28.459,0,0,1,66.379,64.83,36.669,36.669,0,0,1,68.151,76.1l0.012,2.841-0.015,5.32h4.171L72.278,76.1a20.3,20.3,0,0,1,2.859-10.412A44.947,44.947,0,0,1,76.366,76.1l0.008,6.027,0,2.164,4.111-.03L80.493,76.1A12.3,12.3,0,0,1,92.806,63.829L97,63.834V59.752Zm-23-7a33.01,33.01,0,0,0-2.881,3.215A40.979,40.979,0,0,0,64.6,52.323,37.055,37.055,0,0,1,67.479,49.3Q68.719,50.963,69.809,52.739ZM62,43.2q1.5,1.4,2.875,2.922Q63.363,47.52,62,49.064q-1.364-1.541-2.875-2.942Q60.494,44.6,62,43.2Zm-5.481,6.1A37.113,37.113,0,0,1,59.4,52.323a40.771,40.771,0,0,0-2.329,3.631,33.008,33.008,0,0,0-2.881-3.215Q55.275,50.963,56.518,49.3ZM53.239,65.153a24.548,24.548,0,0,0-2.885-4.47,44.636,44.636,0,0,1,1.78-4.184,28.818,28.818,0,0,1,2.88,3.576A40.572,40.572,0,0,0,53.239,65.153Zm8.76-.43a32.544,32.544,0,0,0-2.33-4.928A36.725,36.725,0,0,1,62,55.765a36.866,36.866,0,0,1,2.329,4.029A32.506,32.506,0,0,0,62,64.723Zm8.759,0.431a40.551,40.551,0,0,0-1.775-5.079A28.8,28.8,0,0,1,71.863,56.5a44.7,44.7,0,0,1,1.78,4.185A24.528,24.528,0,0,0,70.758,65.153Z" transform="translate(-27 -27)"/>
</svg>
