<svg xmlns="http://www.w3.org/2000/svg" width="28" height="23.062" viewBox="0 0 28 23.062">
  <metadata><?xpacket begin="﻿" id="W5M0MpCehiHzreSzNTczkc9d"?>
<x:xmpmeta xmlns:x="adobe:ns:meta/" x:xmptk="Adobe XMP Core 5.6-c138 79.159824, 2016/09/14-01:09:01        ">
   <rdf:RDF xmlns:rdf="http://www.w3.org/1999/02/22-rdf-syntax-ns#">
      <rdf:Description rdf:about=""/>
   </rdf:RDF>
</x:xmpmeta>
                                                                                                    
                                                                                                    
                                                                                                    
                                                                                                    
                                                                                                    
                                                                                                    
                                                                                                    
                                                                                                    
                                                                                                    
                                                                                                    
                                                                                                    
                                                                                                    
                                                                                                    
                                                                                                    
                                                                                                    
                                                                                                    
                                                                                                    
                                                                                                    
                                                                                                    
                                                                                                    
                           
<?xpacket end="w"?></metadata>
<defs>
    <style>
      .cls-1 {
        fill: #00aeff;
        fill-rule: evenodd;
      }
    </style>
  </defs>
  <path id="иконка" class="cls-1" d="M222.322,167.117a6.56,6.56,0,0,0-5.313,2.718,19.792,19.792,0,0,0-.491-1.954,8.18,8.18,0,0,1,5.8-2.411l1.654-.012,0-1.634h-1.657a9.8,9.8,0,0,0-6.407,2.379q-0.324-.79-0.714-1.543a11.428,11.428,0,0,1,7.121-2.483h1.64l0.017-1.645-1.657,0a13.062,13.062,0,0,0-7.943,2.683c-0.293-.467-0.6-0.923-0.93-1.362a14.7,14.7,0,0,1,8.873-2.968l1.657,0v-1.647l-1.657,0a16.319,16.319,0,0,0-9.915,3.342q-0.551-.62-1.15-1.189a17.964,17.964,0,0,1,11.065-3.8l1.657,0v-1.647l-1.657,0A19.59,19.59,0,0,0,210,158.284a19.6,19.6,0,0,0-12.323-4.343l-1.657,0v1.647l1.657,0a17.964,17.964,0,0,1,11.065,3.8q-0.6.57-1.149,1.189a16.324,16.324,0,0,0-9.916-3.342l-1.657,0v1.647l1.657,0a14.693,14.693,0,0,1,8.873,2.968c-0.329.439-.637,0.9-0.929,1.362a13.067,13.067,0,0,0-7.944-2.683l-1.657,0,0.017,1.645h1.64a11.426,11.426,0,0,1,7.121,2.483c-0.258.5-.5,1.016-0.713,1.543a9.806,9.806,0,0,0-6.408-2.379H196.02l0,1.634,1.654,0.012a8.18,8.18,0,0,1,5.8,2.411,19.792,19.792,0,0,0-.491,1.954,6.56,6.56,0,0,0-5.313-2.718l-1.677.006v1.643l1.677,0a4.935,4.935,0,0,1,4.925,4.941l0,3.285L204.252,177l0-.882,0-2.415a18.2,18.2,0,0,1,.491-4.191,8.208,8.208,0,0,1,1.144,4.191l-0.016,3.285h1.668l-0.006-2.128,0-1.157a14.83,14.83,0,0,1,.709-4.538,11.527,11.527,0,0,1,.926,4.538v3.285h1.653v-3.285a11.51,11.51,0,0,1,.927-4.538,14.86,14.86,0,0,1,.708,4.538l0,1.144-0.006,2.141h1.668l-0.016-3.285a8.208,8.208,0,0,1,1.144-4.191,18.2,18.2,0,0,1,.491,4.191l0,2.426V177l1.644-.012,0-3.285a4.935,4.935,0,0,1,4.925-4.941l1.677,0v-1.643Zm-9.2-2.817a13.236,13.236,0,0,0-1.152,1.295,16.3,16.3,0,0,0-.932-1.462,14.89,14.89,0,0,1,1.153-1.217C212.522,163.362,212.834,163.824,213.123,164.3ZM210,160.461q0.6,0.563,1.149,1.176c-0.4.375-.786,0.771-1.149,1.184-0.364-.413-0.747-0.809-1.15-1.184Q209.4,161.024,210,160.461Zm-2.193,2.455a14.89,14.89,0,0,1,1.153,1.217,16.2,16.2,0,0,0-.932,1.461,13.341,13.341,0,0,0-1.152-1.294C207.165,163.824,207.477,163.362,207.807,162.916ZM206.5,169.3a9.91,9.91,0,0,0-1.154-1.8,18,18,0,0,1,.712-1.684,11.585,11.585,0,0,1,1.152,1.439A16.337,16.337,0,0,0,206.5,169.3Zm3.5-.173a13.21,13.21,0,0,0-.932-1.984,14.777,14.777,0,0,1,.932-1.622,14.933,14.933,0,0,1,.931,1.622A13.108,13.108,0,0,0,210,169.124Zm3.5,0.173a16.337,16.337,0,0,0-.71-2.044,11.585,11.585,0,0,1,1.152-1.439,17.845,17.845,0,0,1,.712,1.684A9.944,9.944,0,0,0,213.5,169.3Z" transform="translate(-196 -153.938)"/>
</svg>
