<svg xmlns="http://www.w3.org/2000/svg" viewBox="0 0 217 248"><defs><style>.cls-1{fill:#00aeff;}</style></defs><title>logo-l-print</title><g id="Слой_2" data-name="Слой 2"><g id="Слой_1-2" data-name="Слой 1"><path id="логотип" class="cls-1" d="M119,247.18V226.26H99.68v20.92H93.31V202.74h6.37v18.12H119V202.74h6.37v44.44H119m47.87,0h6.47V202.74h-7.6l-18,35.21h-.19V202.74h-6.36v44.44h7.58l18-35.1h.1v35.1m37-39H216.1v-5.41H185.35v5.41h12.18v39h6.38v-39M58.7,202.83H68.76l14.49,44.35H76.39l-3.46-11.4H54.35l-3.59,11.4h-6.2L58.7,202.83Zm-2.82,27.63H71.26l-7.72-25.54h-.13l-7.53,25.54M7.79,202.74v9.9c0,13-.55,17.46-.93,19.87-.76,4.88-2.25,7.68-4.22,8.7a10,10,0,0,1-2,.72L.06,248a17.6,17.6,0,0,0,6.71-1.74C12.11,243,13,235.89,13.43,230a155.73,155.73,0,0,0,.75-17v-4.58H28.33v38.75H35V202.74ZM204,101.48a50.9,50.9,0,0,0-41.18,20.94,149.26,149.26,0,0,0-3.8-15A63.59,63.59,0,0,1,204,88.8l12.81-.09,0-12.58-12.84,0a76.24,76.24,0,0,0-49.66,18.32c-1.67-4.05-3.53-8-5.53-11.88A88.84,88.84,0,0,1,204,63.43h12.71l.13-12.66-12.84,0a101.6,101.6,0,0,0-61.56,20.67c-2.27-3.6-4.66-7.11-7.2-10.49A114.26,114.26,0,0,1,204,38.06l12.84,0V25.39l-12.84,0a127,127,0,0,0-76.85,25.74q-4.25-4.77-8.9-9.16A139.73,139.73,0,0,1,204,12.68l12.84,0V0L204,0a152.51,152.51,0,0,0-95.5,33.46A152.51,152.51,0,0,0,13,0L.16,0V12.71l12.84,0A139.8,139.8,0,0,1,98.75,42q-4.64,4.4-8.9,9.15A127,127,0,0,0,13,25.37l-12.84,0V38.08l12.84,0A114.31,114.31,0,0,1,81.77,60.92c-2.55,3.38-4.94,6.9-7.2,10.49A101.62,101.62,0,0,0,13,50.74l-12.84,0L.29,63.43H13A88.84,88.84,0,0,1,68.19,82.55c-2,3.87-3.86,7.83-5.53,11.88A76.24,76.24,0,0,0,13,76.11H.16l0,12.59L13,88.8a63.59,63.59,0,0,1,45,18.57,152.7,152.7,0,0,0-3.8,15A50.92,50.92,0,0,0,13,101.48l-13,0v12.66l13,0a38.12,38.12,0,0,1,38.17,38.05l0,25.3,12.75.1,0-6.8,0-18.6a139.85,139.85,0,0,1,3.81-32.28,63,63,0,0,1,8.87,32.28l-.13,25.3H89.44l0-16.39,0-8.91a113.93,113.93,0,0,1,5.49-34.95,88.06,88.06,0,0,1,7.18,35v25.3H114.9v-25.3a88.23,88.23,0,0,1,7.18-34.95,113.63,113.63,0,0,1,5.49,35l0,8.81,0,16.49h12.93l-.12-25.3a62.94,62.94,0,0,1,8.86-32.28A139.31,139.31,0,0,1,153,152.22l0,18.68v6.71l12.74-.09,0-25.3a38.12,38.12,0,0,1,38.18-38l13,0V101.53ZM132.71,79.79a100.54,100.54,0,0,0-8.93,10,127.34,127.34,0,0,0-7.22-11.26,116.32,116.32,0,0,1,8.93-9.38q3.84,5.16,7.22,10.67ZM108.5,50.22q4.65,4.32,8.91,9.06-4.68,4.34-8.91,9.12-4.23-4.79-8.91-9.12Q103.84,54.54,108.5,50.22Zm-17,18.9a116.32,116.32,0,0,1,8.93,9.38,128.66,128.66,0,0,0-7.22,11.25,102.86,102.86,0,0,0-8.93-10q3.36-5.51,7.22-10.67ZM81.35,118.27a75.69,75.69,0,0,0-8.95-13.85,137.16,137.16,0,0,1,5.52-13,88.9,88.9,0,0,1,8.93,11.08,125.42,125.42,0,0,0-5.51,15.74Zm27.15-1.33a100.1,100.1,0,0,0-7.22-15.28,114,114,0,0,1,7.22-12.49,114,114,0,0,1,7.22,12.49,100.1,100.1,0,0,0-7.22,15.28Zm27.15,1.33a125.37,125.37,0,0,0-5.5-15.74,88.9,88.9,0,0,1,8.93-11.08,137.16,137.16,0,0,1,5.52,13,75.69,75.69,0,0,0-8.95,13.85Z"/></g></g></svg>