<svg xmlns="http://www.w3.org/2000/svg" viewBox="0 0 24 13"><defs><style>.cls-1{fill:#fff;}</style></defs><title>xls</title><g id="Слой_2" data-name="Слой 2"><g id="Слой_1-2" data-name="Слой 1"><g id="Filled_Icons" data-name="Filled Icons"><path class="cls-1" d="M22,0H2A2,2,0,0,0,0,2v9a2,2,0,0,0,2,2H22a2,2,0,0,0,2-2V2A2,2,0,0,0,22,0ZM8.25,10h-2L5.62,8.6,5,10H3L4.64,6.5,3,3H5l.65,1.4L6.28,3h2L6.61,6.5ZM14,10H9.62V3h1.76V8.25H14Zm7-5.25H17.94a.44.44,0,0,0,0,.88h.87a2.19,2.19,0,1,1,0,4.37H15.75V8.25h3.06a.44.44,0,1,0,0-.88h-.87a2.19,2.19,0,1,1,0-4.37H21Z"/></g></g></g></svg>