<svg xmlns="http://www.w3.org/2000/svg" width="24" height="24" viewBox="0 0 24 24">
  <metadata><?xpacket begin="﻿" id="W5M0MpCehiHzreSzNTczkc9d"?>
<x:xmpmeta xmlns:x="adobe:ns:meta/" x:xmptk="Adobe XMP Core 5.6-c140 79.160451, 2017/05/06-01:08:21        ">
   <rdf:RDF xmlns:rdf="http://www.w3.org/1999/02/22-rdf-syntax-ns#">
      <rdf:Description rdf:about=""/>
   </rdf:RDF>
</x:xmpmeta>
                                                                                                    
                                                                                                    
                                                                                                    
                                                                                                    
                                                                                                    
                                                                                                    
                                                                                                    
                                                                                                    
                                                                                                    
                                                                                                    
                                                                                                    
                                                                                                    
                                                                                                    
                                                                                                    
                                                                                                    
                                                                                                    
                                                                                                    
                                                                                                    
                                                                                                    
                                                                                                    
                           
<?xpacket end="w"?></metadata>
<defs>
    <style>
      .cls-1 {
        fill: #ff390b;
        fill-rule: evenodd;
      }
    </style>
  </defs>
  <path id="иконка" class="cls-1" d="M329.25,746.437a2.852,2.852,0,0,0,.562.438,27.67,27.67,0,0,0-4.437,1.25l-0.125.062a6.473,6.473,0,0,1,.625-1.375,17.137,17.137,0,0,0,1.375-3.25,7.641,7.641,0,0,0,2,2.875h0Zm7.031,1.407a1.089,1.089,0,0,0-.219-0.782q-0.562-.937-3-0.937a13.342,13.342,0,0,0-1.75.125,7.726,7.726,0,0,1-1.125-.813,7.36,7.36,0,0,1-2.125-3.375v-0.187a15.957,15.957,0,0,0,.5-2.75,2.611,2.611,0,0,0-.5-2.063,1.1,1.1,0,0,0-.812-0.312h-0.313a0.859,0.859,0,0,0-.656.312,1.947,1.947,0,0,0-.406.688,5.209,5.209,0,0,0-.219,2.25,15.719,15.719,0,0,0,.531,2.125,28.888,28.888,0,0,1-1.437,3.937q-0.688,1.313-1.313,2.375a9.463,9.463,0,0,0-1.187.625,8.085,8.085,0,0,0-1.781,1.563,3.448,3.448,0,0,0-.719,1.312,1.253,1.253,0,0,0,.062.688l0.063,0.062,0.625,0.438a1.229,1.229,0,0,0,.562.125,2.692,2.692,0,0,0,1.782-.969,16.024,16.024,0,0,0,2.218-3.094l0.25-.125a29.742,29.742,0,0,1,5.375-1,9.226,9.226,0,0,0,2.094.75,8.8,8.8,0,0,0,1.938.25,1.452,1.452,0,0,0,1.156-.375h0A1.294,1.294,0,0,0,336.281,747.844Zm2.938-14.094a2.569,2.569,0,0,1,.781,1.937v18.625A2.667,2.667,0,0,1,337.312,757H318.687A2.667,2.667,0,0,1,316,754.312V735.687A2.57,2.57,0,0,1,318.687,733h18.625A2.653,2.653,0,0,1,339.219,733.75Zm-3.782,14.125c0,0.125-.042.187-0.125,0.187H335a6.288,6.288,0,0,1-2.5-.687,0.607,0.607,0,0,1,.312-0.125,6.556,6.556,0,0,1,1.907.187,1.262,1.262,0,0,1,.593.313Zm-14.562,4.437a2.632,2.632,0,0,1,.469-0.968,9.224,9.224,0,0,1,1.093-1.282c0.166-.083.4-0.208,0.688-0.375q-1.375,2.376-2.25,2.625h0Zm6.187-14.562,0.063-.188,0.187,0.063a1.547,1.547,0,0,1,.125,1.437l-0.25,1.313-0.062.062a4.528,4.528,0,0,1-.063-2.687h0Z" transform="translate(-316 -733)"/>
</svg>
