<svg xmlns="http://www.w3.org/2000/svg" width="24" height="24" viewBox="0 0 24 24">
  <metadata><?xpacket begin="﻿" id="W5M0MpCehiHzreSzNTczkc9d"?>
<x:xmpmeta xmlns:x="adobe:ns:meta/" x:xmptk="Adobe XMP Core 5.6-c140 79.160451, 2017/05/06-01:08:21        ">
   <rdf:RDF xmlns:rdf="http://www.w3.org/1999/02/22-rdf-syntax-ns#">
      <rdf:Description rdf:about=""/>
   </rdf:RDF>
</x:xmpmeta>
                                                                                                    
                                                                                                    
                                                                                                    
                                                                                                    
                                                                                                    
                                                                                                    
                                                                                                    
                                                                                                    
                                                                                                    
                                                                                                    
                                                                                                    
                                                                                                    
                                                                                                    
                                                                                                    
                                                                                                    
                                                                                                    
                                                                                                    
                                                                                                    
                                                                                                    
                                                                                                    
                           
<?xpacket end="w"?></metadata>
<defs>
    <style>
      .cls-1 {
        fill: #ff9c00;
        fill-rule: evenodd;
      }
    </style>
  </defs>
  <path id="иконка" class="cls-1" d="M339.121,981.121A2.89,2.89,0,0,0,340,979V961a3,3,0,0,0-3-3h-6.75a0.75,0.75,0,0,1,0,1.5H329.5V961h0.75a0.75,0.75,0,0,1,0,1.5H329.5V964h0.75a0.75,0.75,0,0,1,0,1.5H329.5V967h0.75a0.75,0.75,0,0,1,0,1.5H329.5V970h0.75a0.75,0.75,0,0,1,0,1.5H329.5a1.432,1.432,0,0,1,1.066.445A1.463,1.463,0,0,1,331,973v4.5a1.482,1.482,0,0,1-1.5,1.5h-3a1.482,1.482,0,0,1-1.5-1.5V973a1.459,1.459,0,0,1,.434-1.055,1.43,1.43,0,0,1,1.066-.445V970h-0.75a0.75,0.75,0,0,1,0-1.5h0.75V967h-0.75a0.75,0.75,0,0,1,0-1.5h0.75V964h-0.75a0.75,0.75,0,0,1,0-1.5h0.75V961h-0.75a0.75,0.75,0,0,1,0-1.5h0.75V958H319a3,3,0,0,0-3,3v18a3,3,0,0,0,3,3h18A2.89,2.89,0,0,0,339.121,981.121Zm-9.621-5.109a1.477,1.477,0,0,0-.434-1.067,1.5,1.5,0,0,0-2.132,0,1.473,1.473,0,0,0-.434,1.067,1.414,1.414,0,0,0,.445,1.054,1.5,1.5,0,0,0,2.11,0A1.418,1.418,0,0,0,329.5,976.012Z" transform="translate(-316 -958)"/>
</svg>
