<svg xmlns="http://www.w3.org/2000/svg" width="21" height="19.69" viewBox="0 0 21 19.69">
  <metadata><?xpacket begin="﻿" id="W5M0MpCehiHzreSzNTczkc9d"?>
<x:xmpmeta xmlns:x="adobe:ns:meta/" x:xmptk="Adobe XMP Core 5.6-c138 79.159824, 2016/09/14-01:09:01        ">
   <rdf:RDF xmlns:rdf="http://www.w3.org/1999/02/22-rdf-syntax-ns#">
      <rdf:Description rdf:about=""/>
   </rdf:RDF>
</x:xmpmeta>
                                                                                                    
                                                                                                    
                                                                                                    
                                                                                                    
                                                                                                    
                                                                                                    
                                                                                                    
                                                                                                    
                                                                                                    
                                                                                                    
                                                                                                    
                                                                                                    
                                                                                                    
                                                                                                    
                                                                                                    
                                                                                                    
                                                                                                    
                                                                                                    
                                                                                                    
                                                                                                    
                           
<?xpacket end="w"?></metadata>
<defs>
    <style>
      .cls-1 {
        fill: #009edf;
        fill-rule: evenodd;
      }
    </style>
  </defs>
  <path id="иконка" class="cls-1" d="M798.769,2089.23a2.524,2.524,0,0,1-.769-1.86v-10.5a2.627,2.627,0,0,1,2.625-2.62h1.907l0.882-1.93a2.34,2.34,0,0,1,1.107-1.43,3.614,3.614,0,0,1,2.01-.58h3.938a3.609,3.609,0,0,1,2.009.58,2.422,2.422,0,0,1,1.128,1.43l0.862,1.93h1.907a2.627,2.627,0,0,1,2.625,2.62v10.5a2.627,2.627,0,0,1-2.625,2.63h-15.75A2.54,2.54,0,0,1,798.769,2089.23Zm4.05-10.4a6.6,6.6,0,0,0,0,6.59,6.627,6.627,0,0,0,2.389,2.39,6.6,6.6,0,0,0,6.583,0,6.622,6.622,0,0,0,2.39-2.39,6.6,6.6,0,0,0,0-6.59,6.622,6.622,0,0,0-2.39-2.39,6.6,6.6,0,0,0-6.583,0A6.627,6.627,0,0,0,802.819,2078.83Zm0.431,3.29a5.237,5.237,0,1,1,1.538,3.72A5.078,5.078,0,0,1,803.25,2082.12Zm1.312,0a3.925,3.925,0,1,0,1.149-2.78A3.779,3.779,0,0,0,804.562,2082.12Z" transform="translate(-798 -2070.31)"/>
</svg>
