<?xml version="1.0" encoding="utf-8"?>
<!-- Generator: Adobe Illustrator 21.1.0, SVG Export Plug-In . SVG Version: 6.00 Build 0)  -->
<svg version="1.1" id="Слой_1" xmlns="http://www.w3.org/2000/svg" xmlns:xlink="http://www.w3.org/1999/xlink" x="0px" y="0px"
	 viewBox="0 0 32 32" style="enable-background:new 0 0 32 32;" xml:space="preserve">
<style type="text/css">
	.st0{fill:#CACACA;}
</style>
<path id="иконка" class="st0" d="M25,19.5c1.8-0.2,3.5-0.7,5.1-1.5c1.3-0.6,1.9-1.3,1.9-2v-2c0-0.5-0.2-0.9-0.5-1.2
	c-0.4-0.4-0.9-0.7-1.5-0.8h-1v2c0,0.7-0.7,1.4-2.1,2c-1.8,0.7-3.7,1.2-5.6,1.5C18.9,17.8,16.4,18,14,18c-3.2,0-6.4-0.3-9.5-1
	c0.8,0.9,2.4,1.6,4.9,2.1c2.8,0.6,5.7,0.9,8.6,0.8C20.4,20,22.7,19.8,25,19.5z M23,11.5c1.8-0.2,3.5-0.7,5.1-1.5
	C29.4,9.4,30,8.7,30,8V7.3c-1.7,1-3.6,1.7-5.5,2c-5.6,1-11.4,1-17,0C5.6,9,3.7,8.3,2,7.3v1.2C2.1,8.7,2.2,8.9,2.4,9
	c0.4,0.4,0.9,0.7,1.5,0.9c0.8,0.4,1.7,0.7,2.5,1c1.3,0.4,2.7,0.6,4,0.8c1.8,0.2,3.7,0.3,5.6,0.3C18.4,12,20.7,11.8,23,11.5z M28.1,6
	C29.4,5.4,30,4.7,30,4c0-0.7-0.6-1.4-1.9-2c-1.6-0.7-3.3-1.2-5.1-1.5c-4.7-0.7-9.4-0.7-14.1,0C7.2,0.8,5.5,1.3,3.9,2
	C2.6,2.6,2,3.3,2,4c0,0.7,0.6,1.4,1.9,2C5.5,6.7,7.2,7.2,9,7.5c4.7,0.7,9.4,0.7,14.1,0C24.8,7.2,26.5,6.7,28.1,6z M1,8.5
	C0.4,8.8,0.1,9.4,0,10v2c0,0.7,0.6,1.4,1.9,2c1.6,0.7,3.3,1.2,5.1,1.5c2.3,0.4,4.7,0.6,7,0.5c1.6,0,3.1-0.1,4.7-0.2
	c1.2-0.1,2.4-0.3,3.5-0.5c0.9-0.2,1.7-0.4,2.5-0.7c0.6-0.2,1.1-0.5,1.7-0.8c0.4-0.2,0.7-0.4,1-0.7c0.2-0.2,0.3-0.3,0.5-0.5
	c0.1-0.1,0.1-0.2,0.1-0.2c-1.7,0.6-3.5,1-5.3,1.2C20.5,13.9,18.2,14,16,14c-2.4,0-4.9-0.2-7.3-0.5c-1.9-0.2-3.8-0.7-5.6-1.5
	C1.7,11.4,1,10.7,1,10V8.5z M0,22v2c0,0.7,0.6,1.4,1.9,2c1.6,0.7,3.3,1.2,5.1,1.5c2.3,0.4,4.7,0.5,7,0.5c3.2,0.1,6.4-0.3,9.5-1
	c2.7-0.7,4.2-1.6,4.5-2.6c-1.7,0.6-3.5,1-5.3,1.2c-4.6,0.6-9.3,0.6-13.9-0.1c-1.9-0.2-3.8-0.7-5.6-1.5C1.7,23.4,1,22.7,1,22v-1.5
	C0.4,20.8,0.1,21.4,0,22L0,22z M10.8,21.5C8.9,21.2,7,20.7,5.2,20c-1.4-0.6-2.1-1.3-2.1-2c0-0.4,0.2-0.9,0.6-1.2
	c-0.2-0.1-0.5-0.1-0.8-0.3C2.4,16.9,2.1,17.4,2,18v2c0,0.7,0.6,1.4,1.9,2c1.6,0.7,3.3,1.2,5.1,1.5c2.3,0.4,4.7,0.5,7,0.5
	c3.2,0.1,6.4-0.3,9.5-1.1c2.7-0.7,4.1-1.6,4.4-2.6c-1.7,0.6-3.5,1-5.3,1.2C22.4,21.9,20.2,22,18,22C15.6,22,13.1,21.8,10.8,21.5z
	 M26.9,28c-1.8,0.7-3.7,1.2-5.6,1.5C18.9,29.8,16.4,30,14,30c-2.2,0-4.4-0.1-6.6-0.5c-1.8-0.2-3.6-0.6-5.3-1.2
	c0.3,1,1.8,1.9,4.4,2.6c3.1,0.8,6.3,1.1,9.5,1.1c2.4,0,4.7-0.2,7-0.5c1.8-0.2,3.5-0.7,5.1-1.5c1.3-0.6,1.9-1.3,1.9-2v-2
	c-0.1-0.6-0.4-1.2-1-1.5V26C29,26.7,28.3,27.4,26.9,28z"/>
</svg>
