<svg xmlns="http://www.w3.org/2000/svg" width="12" height="12" viewBox="0 0 12 12">
  <metadata><?xpacket begin="﻿" id="W5M0MpCehiHzreSzNTczkc9d"?>
<x:xmpmeta xmlns:x="adobe:ns:meta/" x:xmptk="Adobe XMP Core 5.6-c138 79.159824, 2016/09/14-01:09:01        ">
   <rdf:RDF xmlns:rdf="http://www.w3.org/1999/02/22-rdf-syntax-ns#">
      <rdf:Description rdf:about=""/>
   </rdf:RDF>
</x:xmpmeta>
                                                                                                    
                                                                                                    
                                                                                                    
                                                                                                    
                                                                                                    
                                                                                                    
                                                                                                    
                                                                                                    
                                                                                                    
                                                                                                    
                                                                                                    
                                                                                                    
                                                                                                    
                                                                                                    
                                                                                                    
                                                                                                    
                                                                                                    
                                                                                                    
                                                                                                    
                                                                                                    
                           
<?xpacket end="w"?></metadata>
<defs>
    <style>
      .cls-1 {
        fill: #b2b2b2;
        fill-rule: evenodd;
      }
    </style>
  </defs>
  <path id="иконка" class="cls-1" d="M297.668,1123.08a5.972,5.972,0,0,1-1.916-1.12,5.145,5.145,0,0,1-1.277-1.67,4.618,4.618,0,0,1,0-4.08,5.293,5.293,0,0,1,1.277-1.68,6.14,6.14,0,0,1,1.916-1.11,6.684,6.684,0,0,1,4.664,0,6.14,6.14,0,0,1,1.916,1.11,5.293,5.293,0,0,1,1.277,1.68,4.623,4.623,0,0,1-.076,4.23,5.356,5.356,0,0,1-1.523,1.77,3.288,3.288,0,0,0-.153,1.33,4.1,4.1,0,0,0,.352,1.46,0.675,0.675,0,0,1-.129-0.01,2.964,2.964,0,0,1-.352-0.1,3.048,3.048,0,0,1-.556-0.25,5.322,5.322,0,0,1-.7-0.51,6.87,6.87,0,0,1-.815-0.82A6.643,6.643,0,0,1,297.668,1123.08Zm4.582-4.84a0.738,0.738,0,0,0,.223.54,0.718,0.718,0,0,0,.533.22,0.7,0.7,0,0,0,.527-0.22,0.749,0.749,0,0,0,.217-0.54,0.746,0.746,0,0,0-.744-0.74,0.718,0.718,0,0,0-.533.22A0.7,0.7,0,0,0,302.25,1118.24Zm-3,0a0.738,0.738,0,0,0,.223.54,0.718,0.718,0,0,0,.533.22,0.7,0.7,0,0,0,.527-0.22,0.749,0.749,0,0,0,.217-0.54,0.746,0.746,0,0,0-.744-0.74,0.718,0.718,0,0,0-.533.22A0.7,0.7,0,0,0,299.25,1118.24Zm-3,0a0.738,0.738,0,0,0,.223.54,0.718,0.718,0,0,0,.533.22,0.7,0.7,0,0,0,.527-0.22,0.749,0.749,0,0,0,.217-0.54,0.746,0.746,0,0,0-.744-0.74,0.718,0.718,0,0,0-.533.22A0.7,0.7,0,0,0,296.25,1118.24Z" transform="translate(-294 -1113)"/>
</svg>
