<svg xmlns="http://www.w3.org/2000/svg" width="21" height="24" viewBox="0 0 21 24">
  <metadata><?xpacket begin="﻿" id="W5M0MpCehiHzreSzNTczkc9d"?>
<x:xmpmeta xmlns:x="adobe:ns:meta/" x:xmptk="Adobe XMP Core 5.6-c138 79.159824, 2016/09/14-01:09:01        ">
   <rdf:RDF xmlns:rdf="http://www.w3.org/1999/02/22-rdf-syntax-ns#">
      <rdf:Description rdf:about=""/>
   </rdf:RDF>
</x:xmpmeta>
                                                                                                    
                                                                                                    
                                                                                                    
                                                                                                    
                                                                                                    
                                                                                                    
                                                                                                    
                                                                                                    
                                                                                                    
                                                                                                    
                                                                                                    
                                                                                                    
                                                                                                    
                                                                                                    
                                                                                                    
                                                                                                    
                                                                                                    
                                                                                                    
                                                                                                    
                                                                                                    
                           
<?xpacket end="w"?></metadata>
<defs>
    <style>
      .cls-1 {
        fill: #ff8b00;
        fill-rule: evenodd;
      }
    </style>
  </defs>
  <path id="иконка" class="cls-1" d="M328.855,473.543a5.01,5.01,0,0,0,1.711-1.184,6.329,6.329,0,0,0,1.114-1.722,8.858,8.858,0,0,0,.632-2.028,11.758,11.758,0,0,0,.188-2.109,7.719,7.719,0,0,0-1.219-3.961A11.936,11.936,0,0,0,328,459a1.826,1.826,0,0,1-.809,1.1,2.606,2.606,0,0,1-1.441.4,2.24,2.24,0,0,1-2.25-2.25,2.512,2.512,0,0,1,.234-1.02,6.324,6.324,0,0,1,.516-0.949,4.9,4.9,0,0,0,.516-1.1,4.362,4.362,0,0,0,.234-1.43,3.438,3.438,0,0,0-.363-1.535,3.973,3.973,0,0,0-.867-1.2,6.11,6.11,0,0,0-.985-0.738A1.682,1.682,0,0,0,322,450a6.2,6.2,0,0,1-.305,1.969,5.165,5.165,0,0,1-.82,1.57,10.11,10.11,0,0,1-.973,1.09,12.092,12.092,0,0,1-1,.844q-0.538.409-.656,0.527a19.88,19.88,0,0,0-4.559,5.074q-2.191,3.317-2.191,5.426a15.048,15.048,0,0,0,.117,1.992,8.113,8.113,0,0,0,.481,1.817,4.736,4.736,0,0,0,1.007,1.617,6.5,6.5,0,0,0,1.758,1.23A9.787,9.787,0,0,0,317.5,474a4.311,4.311,0,0,1-1.5-3.75q0-.585.012-0.891c0.007-.2.035-0.476,0.082-0.82a2.4,2.4,0,0,1,.679-1.488,2.42,2.42,0,0,1,.727-0.551,3.688,3.688,0,0,0,.6,2.109,1.884,1.884,0,0,0,1.652.891,1.765,1.765,0,0,0,1.594-.856,3.68,3.68,0,0,0,.539-2,1.812,1.812,0,0,0-.446-1.125,5.22,5.22,0,0,0-.984-0.961,7.2,7.2,0,0,1-1-.891A1.408,1.408,0,0,1,319,462.75a2.434,2.434,0,0,1,.551-1.559,1.46,1.46,0,0,1,.949-0.691,3.151,3.151,0,0,0,.867,2.144,7.023,7.023,0,0,0,2.133,1.606,10.968,10.968,0,0,1,1.348.844,13.359,13.359,0,0,1,1.453,1.23,6.351,6.351,0,0,1,1.219,1.641,3.929,3.929,0,0,1,.48,1.816q0,0.7-.035,1.149a9.477,9.477,0,0,1-.164,1.078,3.254,3.254,0,0,1-.457,1.136,3.042,3.042,0,0,1-.844.856A5.8,5.8,0,0,0,328.855,473.543Z" transform="translate(-311.5 -450)"/>
</svg>
