<svg xmlns="http://www.w3.org/2000/svg" width="20" height="20" viewBox="0 0 20 20">
  <metadata><?xpacket begin="﻿" id="W5M0MpCehiHzreSzNTczkc9d"?>
<x:xmpmeta xmlns:x="adobe:ns:meta/" x:xmptk="Adobe XMP Core 5.6-c138 79.159824, 2016/09/14-01:09:01        ">
   <rdf:RDF xmlns:rdf="http://www.w3.org/1999/02/22-rdf-syntax-ns#">
      <rdf:Description rdf:about=""/>
   </rdf:RDF>
</x:xmpmeta>
                                                                                                    
                                                                                                    
                                                                                                    
                                                                                                    
                                                                                                    
                                                                                                    
                                                                                                    
                                                                                                    
                                                                                                    
                                                                                                    
                                                                                                    
                                                                                                    
                                                                                                    
                                                                                                    
                                                                                                    
                                                                                                    
                                                                                                    
                                                                                                    
                                                                                                    
                                                                                                    
                           
<?xpacket end="w"?></metadata>
<defs>
    <style>
      .cls-1 {
        fill: #cacaca;
        fill-rule: evenodd;
      }
    </style>
  </defs>
  <path id="иконка" class="cls-1" d="M479.08,814.08a10.006,10.006,0,0,0,2.129-3.193,9.946,9.946,0,0,0,0-7.774,9.788,9.788,0,0,0-5.322-5.322,9.946,9.946,0,0,0-7.774,0,9.788,9.788,0,0,0-5.322,5.322,9.946,9.946,0,0,0,0,7.774,9.788,9.788,0,0,0,5.322,5.322,9.946,9.946,0,0,0,7.774,0A10.006,10.006,0,0,0,479.08,814.08Zm-4.58-12.715a1.83,1.83,0,0,1-.547,1.328,1.862,1.862,0,0,1-2.656,0,1.826,1.826,0,0,1-.547-1.328A1.875,1.875,0,0,1,474.5,801.365Zm0.645,9.971q-3.224,3.164-4.805,3.164a1.786,1.786,0,0,1-1.485-.84,3.519,3.519,0,0,1-.605-2.109,22,22,0,0,1,1.973-7.617l3.027,0.566a45.226,45.226,0,0,0-1.6,6.367,1.069,1.069,0,0,0,.2.674,0.614,0.614,0,0,0,.5.264,1.948,1.948,0,0,0,1.074-.362,12.347,12.347,0,0,0,1.719-1.591v1.484Z" transform="translate(-462 -797)"/>
</svg>
