<svg xmlns="http://www.w3.org/2000/svg" width="16" height="16" viewBox="0 0 16 16">
  <metadata><?xpacket begin="﻿" id="W5M0MpCehiHzreSzNTczkc9d"?>
<x:xmpmeta xmlns:x="adobe:ns:meta/" x:xmptk="Adobe XMP Core 5.6-c138 79.159824, 2016/09/14-01:09:01        ">
   <rdf:RDF xmlns:rdf="http://www.w3.org/1999/02/22-rdf-syntax-ns#">
      <rdf:Description rdf:about=""/>
   </rdf:RDF>
</x:xmpmeta>
                                                                                                    
                                                                                                    
                                                                                                    
                                                                                                    
                                                                                                    
                                                                                                    
                                                                                                    
                                                                                                    
                                                                                                    
                                                                                                    
                                                                                                    
                                                                                                    
                                                                                                    
                                                                                                    
                                                                                                    
                                                                                                    
                                                                                                    
                                                                                                    
                                                                                                    
                                                                                                    
                           
<?xpacket end="w"?></metadata>
<defs>
    <style>
      .cls-1 {
        fill: #b9b9b9;
        fill-rule: evenodd;
      }
    </style>
  </defs>
  <path id="иконка" class="cls-1" d="M309.828,1093.83A3.864,3.864,0,0,0,311,1091a1.005,1.005,0,0,0-1-1h-1v-9a2.14,2.14,0,0,0-2-2h-8a4,4,0,0,0-4,4,0.949,0.949,0,0,0,.3.71,0.985,0.985,0,0,0,.7.29h1v8a5.483,5.483,0,0,0,.18,1.45,2.434,2.434,0,0,0,.648,1.1A1.626,1.626,0,0,0,299,1095h8A3.857,3.857,0,0,0,309.828,1093.83ZM297,1083h-1a2.883,2.883,0,0,1,1-2.22V1083Zm11,7h-6a0.956,0.956,0,0,0-.7.3,0.943,0.943,0,0,0-.3.7h-1.5a0.478,0.478,0,0,0-.352.15,0.488,0.488,0,0,0,0,.7,0.478,0.478,0,0,0,.352.15h1.359a3.278,3.278,0,0,1-.578,1.15,2.32,2.32,0,0,1-.922.72,1.482,1.482,0,0,1-1.359-1.5V1080h8.5a1.469,1.469,0,0,1,1.07.42,1.6,1.6,0,0,1,.43,1.2V1090Zm2,1a3,3,0,0,1-3,3h-6.125a4.353,4.353,0,0,0,1.125-3h8Zm-10.5-2h7a0.478,0.478,0,0,0,.351-0.15,0.486,0.486,0,0,0,0-.7,0.478,0.478,0,0,0-.351-0.15h-7a0.478,0.478,0,0,0-.352.15,0.488,0.488,0,0,0,0,.7,0.478,0.478,0,0,0,.352.15h0Zm7.351-3.15a0.486,0.486,0,0,0,0-.7,0.478,0.478,0,0,0-.351-0.15h-7a0.478,0.478,0,0,0-.352.15,0.488,0.488,0,0,0,0,.7,0.478,0.478,0,0,0,.352.15h7A0.478,0.478,0,0,0,306.851,1085.85Zm0-3a0.486,0.486,0,0,0,0-.7,0.478,0.478,0,0,0-.351-0.15h-7a0.478,0.478,0,0,0-.352.15,0.488,0.488,0,0,0,0,.7,0.478,0.478,0,0,0,.352.15h7A0.478,0.478,0,0,0,306.851,1082.85Z" transform="translate(-295 -1079)"/>
</svg>
