<svg xmlns="http://www.w3.org/2000/svg" width="16" height="16" viewBox="0 0 16 16">
  <metadata><?xpacket begin="﻿" id="W5M0MpCehiHzreSzNTczkc9d"?>
<x:xmpmeta xmlns:x="adobe:ns:meta/" x:xmptk="Adobe XMP Core 5.6-c138 79.159824, 2016/09/14-01:09:01        ">
   <rdf:RDF xmlns:rdf="http://www.w3.org/1999/02/22-rdf-syntax-ns#">
      <rdf:Description rdf:about=""/>
   </rdf:RDF>
</x:xmpmeta>
                                                                                                    
                                                                                                    
                                                                                                    
                                                                                                    
                                                                                                    
                                                                                                    
                                                                                                    
                                                                                                    
                                                                                                    
                                                                                                    
                                                                                                    
                                                                                                    
                                                                                                    
                                                                                                    
                                                                                                    
                                                                                                    
                                                                                                    
                                                                                                    
                                                                                                    
                                                                                                    
                           
<?xpacket end="w"?></metadata>
<defs>
    <style>
      .cls-1 {
        fill: #b9b9b9;
        fill-rule: evenodd;
      }
    </style>
  </defs>
  <path id="иконка" class="cls-1" d="M602,1085l-2.5-1,0.5-3-3,.5-1-2.5-2,2-2-2-1,2.5-3-.5,0.5,3-2.5,1,2,2-2,2,2.5,1-0.5,3,3-.5,1,2.5,2-2,2,2,1-2.5,3,0.5-0.5-3,2.5-1-2-2Zm-9,0a2.286,2.286,0,0,1-.438,1.41,1.252,1.252,0,0,1-2.125,0,2.493,2.493,0,0,1,0-2.82,1.252,1.252,0,0,1,2.125,0A2.286,2.286,0,0,1,593,1085Zm3.875-1.84a0.252,0.252,0,0,1,.047.34l-4.422,7c-0.011.02-.031,0.06-0.063,0.11s-0.052.09-.062,0.11-0.029.05-.055,0.09-0.047.07-.062,0.09-0.039.03-.071,0.05a0.19,0.19,0,0,1-.085.04,0.309,0.309,0,0,1-.1.01h-0.5a0.493,0.493,0,0,1-.375-0.16,0.254,0.254,0,0,1-.047-0.34l4.422-7c0.01-.02.034-0.06,0.07-0.13s0.06-.11.071-0.13,0.033-.04.07-0.09a0.294,0.294,0,0,1,.086-0.09c0.021-.01.049-0.02,0.086-0.04A0.434,0.434,0,0,1,596,1083h0.5A0.493,0.493,0,0,1,596.875,1083.16ZM598,1089a2.286,2.286,0,0,1-.438,1.41,1.252,1.252,0,0,1-2.125,0,2.493,2.493,0,0,1,0-2.82,1.252,1.252,0,0,1,2.125,0A2.286,2.286,0,0,1,598,1089Zm-1-.01a1.533,1.533,0,0,0-.148-0.7,0.359,0.359,0,0,0-.7,0,1.753,1.753,0,0,0,0,1.41,0.357,0.357,0,0,0,.7,0A1.548,1.548,0,0,0,597,1088.99Zm-5-4a1.533,1.533,0,0,0-.148-0.7,0.359,0.359,0,0,0-.7,0,1.753,1.753,0,0,0,0,1.41,0.357,0.357,0,0,0,.7,0A1.548,1.548,0,0,0,592,1084.99Z" transform="translate(-586 -1079)"/>
</svg>
